<svg xmlns="http://www.w3.org/2000/svg" width="19.606" height="22.639" viewBox="0 0 19.606 22.639">
  <g id="Active_Nounmodifier" transform="translate(-34.206)">
    <path id="Path_7283" data-name="Path 7283" d="M94.206,73.406v8.248l7.143,4.124,7.143-4.124V73.406l-7.143-4.124Zm12.291.384-5.148,2.972L96.2,73.79l5.148-2.972ZM95.536,74.942l5.148,2.972v5.944l-5.148-2.972Zm6.478,8.916V77.914l5.148-2.972v5.944Z" transform="translate(-57.34 -66.21)" fill="#fff"/>
    <path id="Path_7284" data-name="Path 7284" d="M177.431,1.536l2.948,1.7.665-1.152L177.431,0l-3.613,2.086.665,1.152Z" transform="translate(-133.422)" fill="#fff"/>
    <path id="Path_7285" data-name="Path 7285" d="M35.536,83.458l2.948-1.7L37.819,80.6,34.206,82.69v4.172h1.33Z" transform="translate(0 -77.03)" fill="#fff"/>
    <path id="Path_7286" data-name="Path 7286" d="M35.536,288.87h-1.33v4.172l3.613,2.086.665-1.152-2.948-1.7Z" transform="translate(0 -276.063)" fill="#fff"/>
    <path id="Path_7287" data-name="Path 7287" d="M177.431,439.306l-2.948-1.7-.665,1.152,3.613,2.086,3.613-2.086-.665-1.152Z" transform="translate(-133.422 -418.203)" fill="#fff"/>
    <path id="Path_7288" data-name="Path 7288" d="M382.88,292.274l-2.948,1.7.665,1.152,3.613-2.086V288.87h-1.33Z" transform="translate(-330.398 -276.063)" fill="#fff"/>
    <path id="Path_7289" data-name="Path 7289" d="M380.6,80.6l-.665,1.152,2.948,1.7v3.4h1.33V82.69Z" transform="translate(-330.398 -77.03)" fill="#fff"/>
  </g>
</svg>
