<svg xmlns="http://www.w3.org/2000/svg" width="14.002" height="8" viewBox="0 0 14.002 8">
    <g>
        <g fill="rgba(0,0,0,0)" stroke-linecap="round" stroke-linejoin="round">
            <path d="M-9699.647-3943.646l-.354-.354-.353.354-6-6 .707-.707 5.646 5.646 5.648-5.646.707.707-6.001 6z" transform="translate(1 1) translate(9706.001 3950)"/>
            <path fill="#1e3e67" d="M-9706.001-3950l6 6-6-6m12.002 0l-6.002 6 6.002-6m0-1c.256 0 .512.098.707.293.39.391.39 1.024 0 1.415l-6.002 6c-.195.195-.451.292-.707.292-.03 0-.06-.001-.09-.004-.14-.013-.277-.054-.402-.125l-.003-.001-.001-.001-.001-.001h-.002l-.001-.002h-.002v-.001c-.074-.042-.143-.095-.205-.158l-.003-.002-5.997-5.997c-.39-.39-.39-1.024 0-1.415.195-.195.451-.293.707-.293.256 0 .512.098.707.293l5.293 5.293 5.295-5.293c.195-.195.451-.293.707-.293z" transform="translate(1 1) translate(9706.001 3950)"/>
        </g>
    </g>
</svg>
