<svg id="Group_7755" data-name="Group 7755" xmlns="http://www.w3.org/2000/svg" width="383.12" height="285.437" viewBox="0 0 383.12 285.437">
  <circle id="Ellipse_44" data-name="Ellipse 44" cx="9.046" cy="9.046" r="9.046" transform="translate(199.405 11.02)" fill="#2085fb"/>
  <path id="Path_395" data-name="Path 395" d="M630.121,192.973a.938.938,0,0,1-.564-.188l-.01-.008-2.126-1.626a.945.945,0,0,1,1.15-1.5l1.377,1.056,3.254-4.245a.944.944,0,0,1,1.324-.175h0l-.02.028.021-.028a.945.945,0,0,1,.175,1.324l-3.827,4.991a.945.945,0,0,1-.751.368Z" transform="translate(-422.567 -169.457)" fill="#fff"/>
  <circle id="Ellipse_44-2" data-name="Ellipse 44" cx="9.046" cy="9.046" r="9.046" transform="translate(199.405 72.172)" fill="#2085fb"/>
  <path id="Path_395-2" data-name="Path 395" d="M630.121,320.974a.938.938,0,0,1-.564-.188l-.01-.008-2.126-1.626a.945.945,0,1,1,1.15-1.5l1.377,1.056,3.254-4.245a.944.944,0,0,1,1.324-.175h0l-.02.028.021-.028a.945.945,0,0,1,.175,1.324l-3.827,4.991a.945.945,0,0,1-.751.368Z" transform="translate(-422.567 -236.305)" fill="#fff"/>
  <path id="Path_6488" data-name="Path 6488" d="M682.9,496.684a5.134,5.134,0,0,1,5.833-5.286l8.285-16.254,4.681,8.244-8.585,14.171a5.162,5.162,0,0,1-10.214-.875Z" transform="translate(-451.732 -320.412)" fill="#ffb7b7"/>
  <path id="Path_6489" data-name="Path 6489" d="M554.222,555.78h-6.5L544.627,530.7h9.6Z" transform="translate(-284.43 -277.157)" fill="#ffb7b7"/>
  <path id="Path_6490" data-name="Path 6490" d="M744.3,738.447H723.339v-.265a8.16,8.16,0,0,1,8.159-8.16H744.3Z" transform="translate(-472.853 -453.522)" fill="#1e3e67"/>
  <path id="Path_6491" data-name="Path 6491" d="M627.995,555.78h-6.5L618.4,530.7H628Z" transform="translate(-322.957 -277.157)" fill="#ffb7b7"/>
  <path id="Path_6492" data-name="Path 6492" d="M818.076,738.447H797.112v-.265a8.16,8.16,0,0,1,8.159-8.16h12.805Z" transform="translate(-511.381 -453.522)" fill="#1e3e67"/>
  <path id="Path_6493" data-name="Path 6493" d="M700.7,490.62l-2.838,4.73s4.73,0,5.677,7.1l3.784-4.73Z" transform="translate(-459.55 -328.495)" fill="#e5e5e5"/>
  <path id="Path_6494" data-name="Path 6494" d="M766.4,469.827s7.569,19.868,8.988,32.167,3.784,44.939,3.784,44.939l4.73,42.1-13.245,1.892-5.677-42.574-12.772-42.1-2.838,42.1-2.365,38.317-12.3.473-.946-39.736-5.2-50.616,2.838-24.125Z" transform="translate(-475.58 -317.636)" fill="#1e3e67"/>
  <circle id="Ellipse_369" data-name="Ellipse 369" cx="11.826" cy="11.826" r="11.826" transform="translate(257.711 68.515)" fill="#ffb7b7"/>
  <path id="Path_6495" data-name="Path 6495" d="M559.432,192.312l4.731,3.311,6.15,61.969L532,258.538l5.2-43.047,4.73-12.3,3.414-4.514Z" transform="translate(-277.833 -100.434)" fill="#e5e5e5"/>
  <path id="Path_6496" data-name="Path 6496" d="M790.444,389.881l1.448-42.791s2.81.217,3.756,1.636,16.557,4.257,16.557,4.257l-2.838,43.993s11.826,35.005,7.569,36.9-11.826,1.419-11.826,1.419Z" transform="translate(-507.899 -253.537)" fill="#1e3e67"/>
  <path id="Path_6497" data-name="Path 6497" d="M728.889,393.745l5.018-28.839-11.168,7.552,2.838,20.814-2.365,14.191s-8.988,39.263-6.15,40.682,6.15,0,6.15,0l5.677-39.736Z" transform="translate(-469.286 -262.841)" fill="#1e3e67"/>
  <path id="Path_6498" data-name="Path 6498" d="M716.314,378.733l-3.311.946L711.584,398.6l-2.365,16.557L697.865,435.5s5.677-3.784,8.042,7.1l12.5-21.768Z" transform="translate(-459.55 -270.063)" fill="#1e3e67"/>
  <path id="Path_6499" data-name="Path 6499" d="M754.832,287.19l2.23-.893s-4.663-5.134-11.15-4.687l1.825-2.009s-4.46-1.786-8.515,2.9a39.577,39.577,0,0,0-6.135,8.623H730.7l1,2.195-3.489,2.195,3.581-.394a12.265,12.265,0,0,0-.1,3.64,4.711,4.711,0,0,0,1.725,3.081h0s2.766-5.725,2.766-6.618v2.232s2.23-2.009,2.23-3.348l1.216,1.562.608-2.455,7.5,2.455-1.216-2.009,4.663.67-1.825-2.455,7.219,10.138S760.711,290.538,754.832,287.19Z" transform="translate(-475.395 -218.117)" fill="#2f2e41"/>
  <path id="Path_6500" data-name="Path 6500" d="M790.264,492.007a5.134,5.134,0,0,1,6.748-4.054l11.282-14.337,2.992,9-11.173,12.235a5.162,5.162,0,0,1-9.85-2.841Z" transform="translate(-507.768 -319.615)" fill="#ffb7b7"/>
  <path id="Path_6501" data-name="Path 6501" d="M620.647,340.415l-4.257,5.2-5.677-9.934,2.365-4.257Z" transform="translate(-318.943 -173.087)" fill="#e5e5e5"/>
  <path id="Path_6502" data-name="Path 6502" d="M818.74,360.822l3.784-1.892s2.838,3.784,3.311,7.1,2.838,7.569,2.838,9.934,6.623,24.6,6.623,24.6l-15.138,30.748s-3.311-11.353-10.407-12.3l11.826-16.557-6.623-11.826Z" transform="translate(-517.982 -259.72)" fill="#1e3e67"/>
  <path id="Path_6503" data-name="Path 6503" d="M800.462,747.223H618.438a.478.478,0,1,1,0-.956H800.462a.478.478,0,1,1,0,.956Z" transform="translate(-417.82 -462.006)" fill="#cbcbcb"/>
  <path id="Path_6504" data-name="Path 6504" d="M373.419,319.4H199.039V279.271h174.38Z" transform="translate(-199.039 -218.119)" fill="#fff"/>
  <path id="Path_6505" data-name="Path 6505" d="M249.86,307.046a1.7,1.7,0,0,0,0,3.4H373.913a1.7,1.7,0,0,0,0-3.4Z" transform="translate(-224.693 -232.624)" fill="#1e3e67"/>
  <path id="Path_6506" data-name="Path 6506" d="M249.856,328.384a1.7,1.7,0,0,0-.007,3.4h78.428a1.7,1.7,0,1,0,0-3.4Z" transform="translate(-224.689 -243.768)" fill="#1e3e67"/>
  <path id="Path_6507" data-name="Path 6507" d="M373.419,319.4H199.039V279.271h174.38Zm-171.513-2.867H370.553v-34.4H201.906Z" transform="translate(-199.039 -218.119)" fill="#e5e5e5"/>
  <path id="Path_6508" data-name="Path 6508" d="M373.419,447.4H199.039V407.271h174.38Z" transform="translate(-199.039 -284.966)" fill="#fff"/>
  <path id="Path_6509" data-name="Path 6509" d="M249.86,435.046a1.7,1.7,0,0,0,0,3.4H373.913a1.7,1.7,0,0,0,0-3.4Z" transform="translate(-224.693 -299.472)" fill="#e6e6e6"/>
  <path id="Path_6510" data-name="Path 6510" d="M249.856,456.384a1.7,1.7,0,0,0-.007,3.4h78.428a1.7,1.7,0,0,0,0-3.4Z" transform="translate(-224.689 -310.615)" fill="#e6e6e6"/>
  <path id="Path_6511" data-name="Path 6511" d="M373.419,447.4H199.039V407.271h174.38Zm-171.513-2.867H370.553v-34.4H201.906Z" transform="translate(-199.039 -284.966)" fill="#e5e5e5"/>
  <path id="Path_6512" data-name="Path 6512" d="M376.419,191.4H202.039V151.271h174.38Z" transform="translate(-200.606 -151.271)" fill="#fff"/>
  <path id="Path_6513" data-name="Path 6513" d="M252.86,179.046a1.7,1.7,0,1,0,0,3.4H376.913a1.7,1.7,0,0,0,0-3.4Z" transform="translate(-226.26 -165.776)" fill="#1e3e67"/>
  <path id="Path_6514" data-name="Path 6514" d="M252.856,200.384a1.7,1.7,0,0,0-.007,3.4h78.428a1.7,1.7,0,0,0,0-3.4Z" transform="translate(-226.256 -176.92)" fill="#1e3e67"/>
  <path id="Path_6515" data-name="Path 6515" d="M376.419,191.4H202.039V151.271h174.38Zm-171.513-2.867H373.553v-34.4H204.906Z" transform="translate(-200.606 -151.271)" fill="#e5e5e5"/>
  <path id="Path_6516" data-name="Path 6516" d="M938.287,710.949V676.389S951.756,700.891,938.287,710.949Z" transform="translate(-585.109 -425.512)" fill="#f1f1f1"/>
  <path id="Path_6517" data-name="Path 6517" d="M912.2,723.167l-25.459-23.372S913.9,706.443,912.2,723.167Z" transform="translate(-558.188 -437.736)" fill="#f1f1f1"/>
  <circle id="Ellipse_44-3" data-name="Ellipse 44" cx="9.046" cy="9.046" r="9.046" transform="translate(222.337 157.139)" fill="#2085fb"/>
  <path id="Path_395-3" data-name="Path 395" d="M678.121,498.819a.938.938,0,0,1-.564-.188l-.01-.008L675.42,497a.945.945,0,1,1,1.15-1.5l1.377,1.056,3.254-4.245a.944.944,0,0,1,1.324-.175h0l-.02.028.021-.028a.945.945,0,0,1,.175,1.324l-3.827,4.991a.945.945,0,0,1-.751.368Z" transform="translate(-447.635 -329.184)" fill="#fff"/>
</svg>
