<svg id="_4380241" data-name="4380241" xmlns="http://www.w3.org/2000/svg" width="34.833" height="31.42" viewBox="0 0 34.833 31.42">
  <path id="Path_6525" data-name="Path 6525" d="M31.833,27.623c0-6.917,3.583-11.667,3.583-15S33.5,2.29,18.167,2.29.583,11.707.583,15.373C.583,32.54,31.833,39.873,31.833,27.623Z" transform="translate(-0.583 -2.29)" fill="#efefef"/>
  <path id="Path_6526" data-name="Path 6526" d="M11.5,5A1.5,1.5,0,1,1,13,3.5,1.5,1.5,0,0,1,11.5,5Zm0-2a.5.5,0,1,0,.5.5A.5.5,0,0,0,11.5,3Z" transform="translate(-0.583 -2)" fill="#a4afc1"/>
  <path id="Path_6527" data-name="Path 6527" d="M29.25,24.25V11.75a2,2,0,0,0-2-2H8.75a2,2,0,0,0-2,2v12.5a2,2,0,0,0,2,2h18.5A2,2,0,0,0,29.25,24.25Z" transform="translate(-0.583 -2.29)" fill="#f3f3f1"/>
  <path id="Path_6530" data-name="Path 6530" d="M10.561,24.25V11.75c0-1.1,1.516-2,3.388-2H10.138c-1.872,0-3.388.9-3.388,2v12.5c0,1.1,1.516,2,3.388,2h3.811C12.077,26.25,10.561,25.355,10.561,24.25Z" transform="translate(-0.583 -2.29)" fill="#d5dbe1"/>
  <path id="Path_6535" data-name="Path 6535" d="M17.25,9H8.75A2.752,2.752,0,0,0,6,11.75v12.5A2.752,2.752,0,0,0,8.75,27h14.5A2.752,2.752,0,0,0,26,24.25v-4.5H24.5v4.5a1.252,1.252,0,0,1-1.25,1.25H8.75A1.252,1.252,0,0,1,7.5,24.25V11.75A1.252,1.252,0,0,1,8.75,10.5h8.5Z" transform="translate(-0.583 -2.29)" fill="#1e3e67"/>
  <path id="iconmonstr-pencil-6" d="M8.179,4.1,9.841,5.765,3.567,12.039l-2.082.42.421-2.083L8.179,4.1Zm0-1.644L.835,9.8,0,13.944l4.141-.835,7.345-7.344Zm4.128,2.485,1.637-1.638L10.637,0,9,1.637Z" transform="translate(12.417 7.225) rotate(-11)" fill="#1e3e67"/>
</svg>
