<svg xmlns="http://www.w3.org/2000/svg" width="14.773" height="13.658" viewBox="0 0 14.773 13.658">
  <g id="Component_21_1" data-name="Component 21 – 1" transform="translate(1 1)">
    <g id="Union_65" data-name="Union 65" transform="translate(508.117 1346)" fill="none" stroke-linecap="round" stroke-linejoin="round">
      <path d="M-508.117-1340.116l5.773,5.773Zm5.773-5.884-5.755,5.756Z" stroke="none"/>
      <path d="M -502.3431091308594 -1334.3427734375 L -508.1166076660156 -1340.1162109375 L -502.3431091308594 -1334.3427734375 M -508.0977172851562 -1340.244873046875 L -502.3431091308594 -1346.00048828125 L -508.0977172851562 -1340.244873046875 M -502.3431091308594 -1333.3427734375 C -502.5990295410156 -1333.3427734375 -502.8549499511719 -1333.4404296875 -503.0502014160156 -1333.635620117188 L -508.8236999511719 -1339.409057617188 C -509.0727233886719 -1339.658081054688 -509.1629638671875 -1340.005737304688 -509.0944213867188 -1340.326293945312 C -509.0758972167969 -1340.554443359375 -508.9794006347656 -1340.77734375 -508.8049011230469 -1340.951904296875 L -503.05029296875 -1346.70751953125 C -502.6597900390625 -1347.09814453125 -502.0265808105469 -1347.098266601562 -501.6360778808594 -1346.707641601562 C -501.2455139160156 -1346.317138671875 -501.2454528808594 -1345.683959960938 -501.6359252929688 -1345.29345703125 L -506.75732421875 -1340.171142578125 L -501.6360168457031 -1335.049926757812 C -501.2454833984375 -1334.659301757812 -501.2454833984375 -1334.026245117188 -501.635986328125 -1333.635620117188 C -501.8312683105469 -1333.4404296875 -502.0871887207031 -1333.3427734375 -502.3431091308594 -1333.3427734375 Z" stroke="none" fill="#acacac"/>
    </g>
    <g id="Union_66" data-name="Union 66" transform="translate(515.117 1346)" fill="none" stroke-linecap="round" stroke-linejoin="round">
      <path d="M-508.117-1340.116l5.773,5.773Zm5.773-5.884-5.755,5.756Z" stroke="none"/>
      <path d="M -502.3431091308594 -1334.3427734375 L -508.1166076660156 -1340.1162109375 L -502.3431091308594 -1334.3427734375 M -508.0977172851562 -1340.244873046875 L -502.3431091308594 -1346.00048828125 L -508.0977172851562 -1340.244873046875 M -502.3431091308594 -1333.3427734375 C -502.5990295410156 -1333.3427734375 -502.8549499511719 -1333.4404296875 -503.0502014160156 -1333.635620117188 L -508.8236999511719 -1339.409057617188 C -509.0727233886719 -1339.658081054688 -509.1629638671875 -1340.005737304688 -509.0944213867188 -1340.326293945312 C -509.0758972167969 -1340.554443359375 -508.9794006347656 -1340.77734375 -508.8049011230469 -1340.951904296875 L -503.05029296875 -1346.70751953125 C -502.6597900390625 -1347.09814453125 -502.0265808105469 -1347.098266601562 -501.6360778808594 -1346.707641601562 C -501.2455139160156 -1346.317138671875 -501.2454528808594 -1345.683959960938 -501.6359252929688 -1345.29345703125 L -506.75732421875 -1340.171142578125 L -501.6360168457031 -1335.049926757812 C -501.2454833984375 -1334.659301757812 -501.2454833984375 -1334.026245117188 -501.635986328125 -1333.635620117188 C -501.8312683105469 -1333.4404296875 -502.0871887207031 -1333.3427734375 -502.3431091308594 -1333.3427734375 Z" stroke="none" fill="#acacac"/>
    </g>
  </g>
</svg>
