<svg xmlns="http://www.w3.org/2000/svg" width="16.738" height="16.715" viewBox="0 0 16.738 16.715">
  <path id="potext" d="M8.369,16.715,5.45,13.8H1.962A1.964,1.964,0,0,1,0,11.834V1.962A1.964,1.964,0,0,1,1.962,0H14.777a1.964,1.964,0,0,1,1.962,1.962v9.873A1.964,1.964,0,0,1,14.777,13.8H11.288ZM1.962,1.308a.655.655,0,0,0-.654.654v9.873a.655.655,0,0,0,.654.654h4.03l2.377,2.377,2.377-2.377h4.03a.655.655,0,0,0,.654-.654V1.962a.655.655,0,0,0-.654-.654ZM13.142,3.6H3.6V4.9h9.546Zm0,2.615H3.6V7.519h9.546ZM10,8.827H3.6v1.308H10Zm0,0" fill="#1e3e67"/>
</svg>
