<svg xmlns="http://www.w3.org/2000/svg" width="15.773" height="13.658" viewBox="0 0 15.773 13.658">
  <g id="Rightarrow" transform="translate(1 1)">
    <g id="Union_65" data-name="Union 65" transform="translate(13.773 11.658) rotate(180)" fill="none" stroke-linecap="round" stroke-linejoin="round">
      <path d="M0,5.773,5.773,0Zm5.773,5.884L.019,5.9Z" stroke="none"/>
      <path d="M 5.773499488830566 -2.86102294921875e-06 L -9.5367431640625e-07 5.7734375 L 5.773499488830566 -2.86102294921875e-06 M 0.01888942718505859 5.902097225189209 L 5.773499488830566 11.65771770477295 L 0.01888942718505859 5.902097225189209 M 5.773499488830566 -1.000000953674316 C 6.029453277587891 -1.000000953674316 6.285325527191162 -0.9023914337158203 6.48060941696167 -0.7071027755737305 C 6.871129035949707 -0.3165826797485352 6.871129035949707 0.3165874481201172 6.480599403381348 0.7071075439453125 L 1.359272003173828 5.828381538391113 L 6.480669021606445 10.9506778717041 C 6.871159553527832 11.34122753143311 6.871099472045898 11.97439765930176 6.480539321899414 12.36488723754883 C 6.285287857055664 12.56010818481445 6.029396533966064 12.65771579742432 5.773505210876465 12.65771579742432 C 5.517551422119141 12.65771579742432 5.261598110198975 12.56006145477295 5.066329002380371 12.3647575378418 L -0.6882805824279785 6.609137535095215 C -0.862790584564209 6.434600830078125 -0.9592990875244141 6.211611747741699 -0.9778122901916504 5.983478546142578 C -1.046356201171875 5.662970542907715 -0.9561161994934082 5.315336227416992 -0.7071008682250977 5.066327571868896 L 5.066399097442627 -0.7071123123168945 C 5.261635303497314 -0.902348518371582 5.517608165740967 -1.000000953674316 5.773499488830566 -1.000000953674316 Z" stroke="none" fill="#2085fb"/>
    </g>
    <g id="Union_66" data-name="Union 66" transform="translate(5.773 11.658) rotate(180)" fill="none" stroke-linecap="round" stroke-linejoin="round">
      <path d="M0,5.773,5.773,0Zm5.773,5.884L.019,5.9Z" stroke="none"/>
      <path d="M 5.773499488830566 -2.86102294921875e-06 L -9.5367431640625e-07 5.7734375 L 5.773499488830566 -2.86102294921875e-06 M 0.01888942718505859 5.902097225189209 L 5.773499488830566 11.65771770477295 L 0.01888942718505859 5.902097225189209 M 5.773499488830566 -1.000000953674316 C 6.029453277587891 -1.000000953674316 6.285325527191162 -0.9023914337158203 6.48060941696167 -0.7071027755737305 C 6.871129035949707 -0.3165826797485352 6.871129035949707 0.3165874481201172 6.480599403381348 0.7071075439453125 L 1.359272003173828 5.828381538391113 L 6.480669021606445 10.9506778717041 C 6.871159553527832 11.34122753143311 6.871099472045898 11.97439765930176 6.480539321899414 12.36488723754883 C 6.285287857055664 12.56010818481445 6.029396533966064 12.65771579742432 5.773505210876465 12.65771579742432 C 5.517551422119141 12.65771579742432 5.261598110198975 12.56006145477295 5.066329002380371 12.3647575378418 L -0.6882805824279785 6.609137535095215 C -0.862790584564209 6.434600830078125 -0.9592990875244141 6.211611747741699 -0.9778122901916504 5.983478546142578 C -1.046356201171875 5.662970542907715 -0.9561161994934082 5.315336227416992 -0.7071008682250977 5.066327571868896 L 5.066399097442627 -0.7071123123168945 C 5.261635303497314 -0.902348518371582 5.517608165740967 -1.000000953674316 5.773499488830566 -1.000000953674316 Z" stroke="none" fill="#2085fb"/>
    </g>
  </g>
</svg>
